<svg width="50" height="50" viewBox="0 0 50 50" fill="none" xmlns="http://www.w3.org/2000/svg">
<path d="M49.4262 36.0899C47.5026 35.7256 46.0522 37.0311 44.236 35.0857C43.7614 34.5777 43.0759 34.8641 42.8584 35.4828C41.2996 39.923 38.057 37.7778 36.5712 34.6678C36.2833 34.0657 35.4683 34.1179 35.1686 34.6678C34.1417 37.4098 32.1642 37.7475 29.2357 35.6808C28.7706 35.2368 28.0076 35.3862 27.8326 36.0851C26.5578 41.1823 22.1025 39.7819 20.7299 35.5934C20.6608 35.3824 20.5121 35.2801 20.3577 35.2617C20.0454 34.8352 19.3381 34.7073 19.0944 35.3056C17.3386 39.6131 14.0796 38.9538 12.0512 35.3113C11.6851 34.654 10.9292 34.8819 10.6891 35.5057C8.98322 39.937 4.01262 39.8353 4.10113 34.5084C4.11085 33.9184 3.30163 33.8026 3.16479 34.3702C1.56369 41.0089 9.00633 42.1602 11.5845 37.2871C14.2475 40.5921 18.2408 41.2703 20.1452 36.8224C21.77 41.7006 27.0775 42.6601 29.0503 37.8062C31.5554 39.6329 33.9418 39.3459 35.8245 36.7507C38.1205 40.3286 42.2118 41.6467 44.028 37.2317C45.6948 38.4627 46.8005 37.6015 49.2121 37.8125C50.1122 37.8916 50.3179 36.2591 49.4262 36.0899Z" fill="#00B2A0"/>
<path d="M48.6783 43.5752C47.8758 45.0062 47.5984 46.2886 45.8794 46.988C43.7636 47.8496 41.6575 45.7938 40.6148 44.1082C40.255 43.5264 39.3824 43.4146 39.0464 44.1082C37.5735 47.1487 34.3116 46.4062 32.9198 43.4719C32.5776 42.75 31.4204 42.8789 31.2782 43.7047C30.4961 48.2534 26.9845 48.7348 24.6326 45.4379C24.8893 44.5502 23.5502 43.946 23.1851 44.8149C21.2109 49.5149 17.3565 48.9898 15.1195 44.7955C14.7312 44.0676 13.8614 44.3228 13.6106 45.0095C11.7925 49.9887 8.9607 47.6201 7.37164 44.1928C7.06215 43.5249 6.1795 43.7562 5.99291 44.3883C5.1245 47.3321 3.69382 47.8817 1.28355 48.6433C0.829656 48.787 0.899766 49.6419 1.39891 49.5698C4.16056 49.1702 5.6689 48.6369 6.79764 46.4047C9.11656 50.3349 12.3539 51.1377 14.5262 47.0022C17.3429 50.8291 21.8676 51.2654 24.1094 46.7124C26.5996 50.3889 30.7757 50.2079 32.448 46.2016C34.6055 48.9637 37.7456 49.3518 39.9182 46.2607C43.1513 49.7889 49.7637 50.5787 49.9994 43.9645C50.0288 43.1757 49.0333 42.9419 48.6783 43.5752Z" fill="#00B2A0"/>
<path d="M15.2171 7.50507C14.6624 7.67895 14.4438 8.12751 14.4607 8.5804C10.5306 9.20593 7.98639 13.383 7.68274 17.5845C7.26747 23.3329 11.8002 26.7097 16.7147 26.2809C21.7397 25.8428 25.0086 21.0025 24.8609 15.8007C24.7133 10.605 20.1442 5.95773 15.2171 7.50507ZM16.0353 23.653C12.4284 23.9717 10.0951 21.3478 10.164 17.5845C10.2364 13.6401 13.042 11.0391 16.2943 9.99917C16.3538 9.98006 16.3968 9.94738 16.4451 9.9184C19.6156 10.4511 22.0133 11.7506 22.3502 15.8001C22.6999 20.0006 19.8368 23.3163 16.0353 23.653Z" fill="#00B2A0"/>
<path d="M10.6436 7.33132C10.052 6.63796 9.39662 6.02877 8.72549 5.4276C8.06009 4.83135 7.35434 3.67771 6.4162 3.77205C5.91937 3.822 5.5828 4.16143 5.54817 4.70711C5.48235 5.74267 6.43022 6.25136 7.11966 6.77947C7.90784 7.3828 8.72664 7.92263 9.45815 8.60859C10.2698 9.37008 11.3805 8.19485 10.6436 7.33132Z" fill="#00B2A0"/>
<path d="M5.20546 10.4497C5.52085 10.4907 5.24209 10.4414 5.15881 10.4134C5.03088 10.3699 4.90553 10.3178 4.78046 10.266C4.6388 10.2077 4.49856 10.1448 4.35861 10.0819C4.34917 10.0776 4.34402 10.0755 4.33 10.0687C4.19663 9.79276 3.96739 9.57048 3.67232 9.4709C3.14544 9.29239 2.3441 8.86602 1.77457 9.05871C1.45261 9.16784 1.11518 9.45486 1.05251 9.83653C1.05251 9.83653 1.05222 9.83808 1.05222 9.83869C0.992693 10.2003 1.01845 10.6708 1.31809 10.9223C1.48495 11.0617 1.68013 11.1604 1.88361 11.2454C1.71877 11.2448 1.85185 11.2532 2.00095 11.2905C2.10656 11.3296 2.21073 11.3697 2.31949 11.4008C2.58164 11.4958 2.84351 11.5923 3.10423 11.6906C3.25391 11.7477 3.40817 11.7526 3.55727 11.7236C4.09331 11.8771 4.6803 12.051 5.20575 12.0165C6.16106 11.9536 6.12014 10.569 5.20546 10.4497Z" fill="#00B2A0"/>
<path d="M3.5686 19.2588C3.16736 19.6211 2.69915 19.905 2.24296 20.1772C2.00713 20.3181 1.7633 20.4639 1.51059 20.5666C1.35919 20.628 1.11822 20.5765 1.45135 20.6421C1.28593 20.6098 1.12909 20.6064 0.964531 20.5873C-0.422649 20.426 -0.296438 23.1242 1.23269 22.7222C1.79592 22.5742 2.37146 21.9952 2.85026 21.6244C3.40576 21.1943 3.9604 20.7241 4.41831 20.1741C4.94176 19.5458 4.15845 18.7258 3.5686 19.2588Z" fill="#00B2A0"/>
<path d="M7.10309 24.6062C6.63316 25.3831 6.20473 26.1883 5.75769 26.9804C5.27317 27.8383 4.45236 28.4781 4.34476 29.5047C4.27607 30.1601 4.94233 30.4847 5.43429 30.3987C6.44026 30.223 6.93109 28.8437 7.29884 27.9503C7.67834 27.0285 7.91158 26.0616 8.21552 25.1109C8.44906 24.3787 7.46455 24.0081 7.10309 24.6062Z" fill="#00B2A0"/>
<path d="M16.6105 27.3986C16.5114 26.8502 15.7241 26.8764 15.6088 27.3986C15.306 28.7715 14.9514 30.1326 14.6541 31.5067C14.5822 31.8384 14.644 32.2222 14.8882 32.4609C14.8481 32.4032 14.8527 32.4146 14.9016 32.4945C15.1927 33.0068 15.8043 32.9483 16.1059 32.4945C15.8303 32.9088 16.3011 32.2938 16.318 32.2623C16.429 32.0579 16.4385 31.8433 16.4502 31.614C16.4748 31.1392 16.5266 30.6656 16.5687 30.1924C16.6514 29.2697 16.7765 28.3171 16.6105 27.3986Z" fill="#00B2A0"/>
<path d="M27.0663 28.2096C26.3465 27.0973 25.2034 26.3833 24.5492 25.2346C24.1013 24.4478 23.0756 25.1332 23.4216 25.9446C23.7215 26.6478 24.1797 27.2317 24.6528 27.8073C24.8786 28.082 25.1098 28.3502 25.3085 28.6487C25.5795 29.0559 25.6908 29.5134 26.2191 29.5927C26.5231 29.6383 26.8699 29.5735 27.0233 29.2397C27.0376 29.2088 27.0519 29.178 27.066 29.1469C27.197 28.8626 27.2474 28.4899 27.0663 28.2096Z" fill="#00B2A0"/>
<path d="M31.254 19.9104C30.0425 19.9792 28.8308 20.0452 27.6193 20.1102C26.5292 20.1688 26.5292 21.8737 27.6193 21.9325C28.8311 21.9979 30.0425 22.0639 31.254 22.132C32.5842 22.2075 32.5842 19.8355 31.254 19.9104Z" fill="#00B2A0"/>
<path d="M31.2548 7.09895C30.1559 7.07429 29.2675 8.49614 28.609 9.32207C27.9012 10.2093 27.2793 11.1709 26.5578 12.0465C26.0066 12.7155 26.8563 13.6419 27.4708 13.0299C28.1983 12.3048 28.8588 11.5079 29.5571 10.751C29.9515 10.3237 30.3596 9.89334 30.8072 9.53047C31.3576 9.08499 31.79 8.9404 32.0347 8.20141C32.2164 7.65296 31.7488 7.11005 31.2548 7.09895Z" fill="#00B2A0"/>
<path d="M25.9736 1.2963C25.3231 1.74579 24.8893 2.47583 24.4422 3.14329C23.9211 3.92143 23.4257 4.70327 22.8229 5.41296C22.1404 6.21669 23.2022 7.3731 23.9351 6.611C24.504 6.01907 25.0077 5.37381 25.5014 4.70912C26.0315 3.99573 26.7149 3.34245 27.1511 2.56431C27.5889 1.78371 26.7074 0.789458 25.9736 1.2963Z" fill="#00B2A0"/>
<path d="M17.8462 0.226597C17.5291 -0.0755323 17.1141 -0.0755323 16.797 0.226597C16.1745 0.819757 16.4616 1.85532 16.5134 2.64486C16.5729 3.55064 16.6367 4.45548 16.7132 5.36002C16.7844 6.20352 17.8588 6.20352 17.93 5.36002C18.0065 4.45517 18.0703 3.55094 18.1298 2.64486C18.1816 1.85563 18.4687 0.819449 17.8462 0.226597Z" fill="#00B2A0"/>
</svg>
